# xmcd
#
# Track frame offsets: 
#        150
#        18560
#        31132
#        62325
#        78654
#        101122
#        119207
#        135905
#        154112
#        169452
#        189932
#        208917
#        219562
#        239480
#        259040
#        280660
#        296077
#        312660
#        333240
#        349905
#
# Disc length: 4837 seconds
#
# Revision: 2
# Processed by: cddbd v1.5.1PL0 Copyright (c) Steve Scherf et al.
# Submitted via: ExactAudioCopy v0.95a5
#
DISCID=3612e314
DTITLE=Various Artist - Martin Scorsese Presents The Blues - A Musical Journe
DTITLE=y [CD5]
DYEAR=2003
DGENRE=Blues
TTITLE0=B.B. King - The Thrill is Gone
TTITLE1=Johnny Winter - Dallas
TTITLE2=Derek and The Dominos - Have You Ever Loved a Woman
TTITLE3=Hound Dog Taylor and The Houserockers - Give Me Back My Wig
TTITLE4=The Allman Brothers Band - One Way Out
TTITLE5=Z.Z. Hill - Down Home Blues
TTITLE6=Stevie Ray Vaughan and Double Trouble - Pride and Joy
TTITLE7=Robert Cray - Smoking Gun
TTITLE8=Fabulous Thunderbirds - Tuff Enuff
TTITLE9=John Lee Hooker and Bonnie Raitt - I'm In the Mood
TTITLE10=Ali Farka Toure - Timbarma
TTITLE11=Keb' Mo' - Am I Wrong
TTITLE12=Luther Allison - Cherry Red Wine
TTITLE13=Peggy Scott-Adams - Bill
TTITLE14=Susan Tedeschi - Just Won't Burn
TTITLE15=Los Lobos - Voodoo Music
TTITLE16=Bonnie Raitt - Round and Round
TTITLE17=Cassandra Wilson - Vietnam Blues
TTITLE18=Robert Cray and Shemekia Copeland - I Pity the Fool (live)
TTITLE19=Keb' Mo' and Corey Harris - Sweet Home Chicago
EXTD=YEAR: 2003
EXTT0=
EXTT1=
EXTT2=
EXTT3=
EXTT4=
EXTT5=
EXTT6=
EXTT7=
EXTT8=
EXTT9=
EXTT10=
EXTT11=
EXTT12=
EXTT13=
EXTT14=
EXTT15=
EXTT16=
EXTT17=
EXTT18=
EXTT19=
PLAYORDER=
